<?xml version="1.0" encoding="utf-8"?>
<!-- Generator: Adobe Illustrator 25.2.1, SVG Export Plug-In . SVG Version: 6.00 Build 0)  -->
<svg version="1.1" id="Camada_1" xmlns="http://www.w3.org/2000/svg" xmlns:xlink="http://www.w3.org/1999/xlink" x="0px" y="0px"
	 viewBox="0 0 31.9 32" style="enable-background:new 0 0 31.9 32;" xml:space="preserve">
<style type="text/css">
	.st0{display:none;fill:url(#SVGID_1_);}
	.st1{display:none;fill:url(#SVGID_2_);}
	.st2{clip-path:url(#SVGID_4_);}
	.st3{fill-rule:evenodd;clip-rule:evenodd;fill:url(#SVGID_5_);}
	.st4{clip-path:url(#SVGID_8_);}
	.st5{fill-rule:evenodd;clip-rule:evenodd;fill:url(#SVGID_9_);}
	.st6{clip-path:url(#SVGID_12_);}
	.st7{fill-rule:evenodd;clip-rule:evenodd;fill:url(#SVGID_13_);}
	.st8{fill-rule:evenodd;clip-rule:evenodd;fill:#FFFFFF;}
</style>
<linearGradient id="SVGID_1_" gradientUnits="userSpaceOnUse" x1="-225.4621" y1="258.9166" x2="-224.8775" y2="258.209" gradientTransform="matrix(31.8754 0 0 -28.4068 7193.981 7355.1138)">
	<stop  offset="0" style="stop-color:#41D1FF"/>
	<stop  offset="1" style="stop-color:#BD34FE"/>
</linearGradient>
<path class="st0" d="M31.8,4.7l-15,26.8c-0.3,0.6-1.1,0.6-1.4,0L0.1,4.7C-0.2,4.1,0.3,3.4,1,3.5l15,2.7c0.1,0,0.2,0,0.3,0l14.7-2.7
	C31.6,3.4,32.1,4.1,31.8,4.7z"/>
<linearGradient id="SVGID_2_" gradientUnits="userSpaceOnUse" x1="-216.5905" y1="258.236" x2="-216.5211" y2="257.3682" gradientTransform="matrix(14.6164 0 0 -26.6459 3183.6101 6881.4453)">
	<stop  offset="0" style="stop-color:#FFEA83"/>
	<stop  offset="8.333001e-02" style="stop-color:#FFDD35"/>
	<stop  offset="1" style="stop-color:#FFA800"/>
</linearGradient>
<path class="st1" d="M23.1,0L12,2.2c-0.2,0-0.3,0.2-0.3,0.4L11,14.1c0,0.2,0.2,0.4,0.4,0.4c0,0,0.1,0,0.1,0l3.1-0.7
	c0.3-0.1,0.5,0.2,0.5,0.5l-0.9,4.5c-0.1,0.3,0.2,0.6,0.5,0.5l1.9-0.6c0.3-0.1,0.6,0.2,0.5,0.5l-1.5,7.1c-0.1,0.4,0.5,0.7,0.7,0.3
	l0.2-0.3l9-18c0.2-0.3-0.1-0.6-0.4-0.6L22,8.2c-0.3,0.1-0.6-0.2-0.5-0.5l2.1-7.2C23.6,0.2,23.4-0.1,23.1,0L23.1,0z"/>
<g>
	<defs>
		<path id="SVGID_3_" d="M16,0C7.2,0,0,7.1,0,16c0,2.2,0.4,4.2,1.2,6.1c0.2,0.4,0.2,0.9,0.1,1.3C0.9,25.6,0,30,0,30
			c-0.2,1.2,0.8,2.2,2,2L8,30.6c0.6-0.1,1.3-0.1,1.9,0.2c1.9,0.8,3.9,1.2,6,1.2c8.8,0,15.9-7.1,15.9-16S24.8,0,16,0z"/>
	</defs>
	<clipPath id="SVGID_4_">
		<use xlink:href="#SVGID_3_"  style="overflow:visible;"/>
	</clipPath>
	<g class="st2">
		
			<linearGradient id="SVGID_5_" gradientUnits="userSpaceOnUse" x1="83.4257" y1="17.6061" x2="71.6876" y2="5.1879" gradientTransform="matrix(0.8463 0.4409 -0.4276 0.821 -47.7004 -21.0861)">
			<stop  offset="0" style="stop-color:#E52163"/>
			<stop  offset="0.1736" style="stop-color:#D01C5A"/>
			<stop  offset="0.6648" style="stop-color:#711131"/>
		</linearGradient>
		<path class="st3" d="M-0.1,22.4l-4,3c-1.1,5.1-1.9,9.5-1.9,10.9c0.3,1.2,0.1,3.1,6.5,1.9C7,36.9,37.2,26.6,37.2,26.6l-2.1-7.8
			l-21.8-1.9L-0.1,22.4z"/>
		<g>
			<defs>
				<path id="SVGID_6_" d="M6,6.1l-8.8,13.4c-0.5,2.1-0.9,4.1-1.3,6.1c4.2-2.1,24.8-11,41.4,1c0,0,5.7-1.5,5.9-6.4
					c0.1-4.9-8.8-12.3-14.6-17.1C22.7-1.7,6,6.1,6,6.1z"/>
			</defs>
			
				<linearGradient id="SVGID_7_" gradientUnits="userSpaceOnUse" x1="92.765" y1="4.7067" x2="45.6307" y2="3.0337" gradientTransform="matrix(0.8463 0.4409 -0.4276 0.821 -47.7004 -21.0861)">
				<stop  offset="0" style="stop-color:#E52163"/>
				<stop  offset="0.1736" style="stop-color:#D01C5A"/>
				<stop  offset="0.6648" style="stop-color:#711131"/>
			</linearGradient>
			<use xlink:href="#SVGID_6_"  style="overflow:visible;fill-rule:evenodd;clip-rule:evenodd;fill:url(#SVGID_7_);"/>
			<clipPath id="SVGID_8_">
				<use xlink:href="#SVGID_6_"  style="overflow:visible;"/>
			</clipPath>
			<g class="st4">
				
					<linearGradient id="SVGID_9_" gradientUnits="userSpaceOnUse" x1="101.3652" y1="21.264" x2="59.5602" y2="19.7802" gradientTransform="matrix(0.8463 0.4409 -0.4276 0.821 -47.7004 -21.0861)">
					<stop  offset="0.3352" style="stop-color:#711131"/>
					<stop  offset="0.8264" style="stop-color:#D01C5A"/>
					<stop  offset="1" style="stop-color:#E52163"/>
				</linearGradient>
				<path class="st5" d="M22.8,50l14.4-23.4c0,0-15.8-14.9-42.1-0.6C-31.2,40.3,22.8,50,22.8,50z"/>
			</g>
		</g>
		<g>
			<defs>
				<path id="SVGID_10_" d="M-2.8,19.6C-1,17.3,11.7,2.5,28.5,3.1c0,0-17.2-14.5-20.2-14.7C6-11.8,4.9-11.9,1,3
					C0.9,3.5-1,11.5-2.8,19.6z"/>
			</defs>
			
				<linearGradient id="SVGID_11_" gradientUnits="userSpaceOnUse" x1="67.2655" y1="-0.7097" x2="40.3422" y2="-2.7912" gradientTransform="matrix(0.8463 0.4409 -0.4276 0.821 -47.7004 -21.0861)">
				<stop  offset="0" style="stop-color:#E52163"/>
				<stop  offset="0.1736" style="stop-color:#D01C5A"/>
				<stop  offset="0.6648" style="stop-color:#711131"/>
			</linearGradient>
			<use xlink:href="#SVGID_10_"  style="overflow:visible;fill-rule:evenodd;clip-rule:evenodd;fill:url(#SVGID_11_);"/>
			<clipPath id="SVGID_12_">
				<use xlink:href="#SVGID_10_"  style="overflow:visible;"/>
			</clipPath>
			<g class="st6">
				
					<linearGradient id="SVGID_13_" gradientUnits="userSpaceOnUse" x1="82.353" y1="4.9963" x2="61.4143" y2="4.2531" gradientTransform="matrix(0.8463 0.4409 -0.4276 0.821 -47.7004 -21.0861)">
					<stop  offset="0.3352" style="stop-color:#711131"/>
					<stop  offset="0.8264" style="stop-color:#D01C5A"/>
					<stop  offset="1" style="stop-color:#E52163"/>
				</linearGradient>
				<path class="st7" d="M28.1,4.8l0.4-1.8c0,0-16.3-3-31.6,16.8C-18.4,39.8,28.1,4.8,28.1,4.8z"/>
			</g>
		</g>
	</g>
</g>
<ellipse class="st8" cx="9.5" cy="16" rx="2.3" ry="2.3"/>
<ellipse class="st8" cx="15.9" cy="16" rx="2.3" ry="2.3"/>
<ellipse class="st8" cx="22.4" cy="16" rx="2.3" ry="2.3"/>
</svg>
