<?xml version="1.0" encoding="utf-8"?>
<!-- Generator: Adobe Illustrator 25.2.1, SVG Export Plug-In . SVG Version: 6.00 Build 0)  -->
<svg version="1.1" id="Camada_1" xmlns="http://www.w3.org/2000/svg" xmlns:xlink="http://www.w3.org/1999/xlink" x="0px" y="0px"
	 viewBox="0 0 806.6 698.8" style="enable-background:new 0 0 806.6 698.8;" xml:space="preserve">
<style type="text/css">
	.st0{display:none;fill-rule:evenodd;clip-rule:evenodd;fill:#F50057;}
	.st1{fill:none;stroke:#FFFFFF;stroke-width:2;stroke-miterlimit:10;}
	.st2{fill:#F2F2F2;}
	.st3{fill:#FFFFFF;}
	.st4{fill:#9E616A;}
	.st5{fill:#3F3D56;}
	.st6{fill:#2F2E41;}
	.st7{fill:#FFB6B6;}
	.st8{fill:#F50057;}
	.st9{fill:#FFB9B9;}
	.st10{fill:#1EC1A1;}
	.st11{fill:#6545ED;}
	.st12{fill:#E6E6E6;}
	.st13{fill:#E4E4E4;}
	.st14{fill:#48EFAF;}
	.st15{fill:#F4A914;}
	.st16{fill:#F0F0F0;}
	.st17{fill:#FFB7B7;}
	.st18{clip-path:url(#SVGID_2_);}
	.st19{fill-rule:evenodd;clip-rule:evenodd;fill:url(#SVGID_3_);}
	.st20{clip-path:url(#SVGID_6_);}
	.st21{fill-rule:evenodd;clip-rule:evenodd;fill:url(#SVGID_7_);}
	.st22{clip-path:url(#SVGID_10_);}
	.st23{fill-rule:evenodd;clip-rule:evenodd;fill:url(#SVGID_11_);}
	.st24{fill-rule:evenodd;clip-rule:evenodd;fill:#FFFFFF;}
	.st25{fill-rule:evenodd;clip-rule:evenodd;fill:#56D156;}
	.st26{fill-rule:evenodd;clip-rule:evenodd;fill:none;stroke:#FFFFFF;stroke-miterlimit:10;}
	.st27{fill-rule:evenodd;clip-rule:evenodd;fill:none;stroke:#FFFFFF;stroke-width:1.5;stroke-miterlimit:10;}
</style>
<rect class="st0" width="805.7" height="698.8"/>
<path class="st1" d="M570.6,234.7v136.5c0,3.8-3.1,7-7,7l-377.4-0.9c-1.9,0-3.4,1.5-3.4,3.4v41"/>
<path class="st2" d="M624.7,213.9c-0.1,44.1-35.9,79.8-80,79.7c-44.1-0.1-79.8-35.9-79.7-80s35.9-79.8,80-79.7l0,0
	c44,0,79.7,35.6,79.7,79.6C624.7,213.6,624.7,213.7,624.7,213.9z"/>
<path class="st3" d="M203.1,449.1c0,16.8-13.7,30.4-30.4,30.3s-30.4-13.7-30.3-30.4c0-16.8,13.7-30.4,30.4-30.3l0,0
	c16.7,0,30.3,13.5,30.3,30.3C203.1,449,203.1,449.1,203.1,449.1z"/>
<path class="st3" d="M299.2,448.1c0,16.8-13.7,30.4-30.4,30.3c-16.8,0-30.4-13.7-30.3-30.4c0-16.8,13.7-30.4,30.4-30.3l0,0
	c16.7,0,30.3,13.5,30.3,30.3C299.2,448,299.2,448,299.2,448.1z"/>
<path class="st4" d="M687.3,262.5l11.2-21.4c-10.1-12.2-43.1-26.9-43.1-26.9l-44.7-40.7c-1.5-5.7-7.3-9.1-13-7.6
	c-5.7,1.5-9.1,7.3-7.6,13c1,3.7,3.8,6.6,7.5,7.6l48.3,57.9L687.3,262.5z"/>
<path class="st5" d="M681.9,261l15.8,5c11.5,3.7,23.9,3.4,35.3-0.8l0,0c7-2.6,11.9-9,12.7-16.4l0,0c1-10.3-6.1-19.5-16.3-21.2
	c-14.9-2.4-34-3.6-40.8,4.5l-0.1,0.1L681.9,261z"/>
<circle class="st3" cx="567.9" cy="246.8" r="79.8"/>
<path class="st6" d="M535.3,215.6c-1.1,5.9-2.9,11.6-5.4,17.1c-14.1,29.8,26,20.1,40.4,20.1c15.7,0,30.7,8.2,28.4-28.4
	c-1-15.6-12.7-28.4-28.4-28.4C556.9,196,538.1,202,535.3,215.6z"/>
<circle class="st7" cx="568" cy="229.7" r="23.1"/>
<path class="st6" d="M552.3,206.2c12.5-7.6,28.7-3.7,36.3,8.8c2.6,4.3,3.9,9.2,3.9,14.2c-11.7,2.9-24.1,5.2-36.6,0.7l-3-7.2
	l-1.7,7.2c-3.8,1.6-7.6,2.9-11.5,0C539.3,220.3,544.2,211.3,552.3,206.2z"/>
<path class="st8" d="M630,299.9c-28.8,32.7-78.5,36.3-111.7,8.1l6.8-19.1c3.2-6.9,9.9-11.5,17.5-12l4.4-0.3l10.4-9
	c0,0,28-1,27.6-1.5l17,10.2l0-0.1l6.7,0.4c7.6,0.5,14.3,5.1,17.5,12L630,299.9z"/>
<path class="st2" d="M560.9,628.8l-2-27.6c-13-6.5-27.4-9.7-41.9-9.4c20.4,15.8,18.8,47.4,32.9,69c9,13.6,23.8,22.3,40,23.7l17,9.8
	c3.9-26-3.7-52.5-20.9-72.3c-4.8-5.5-10.3-10.3-16.4-14.4C565.9,618.3,560.9,628.8,560.9,628.8z"/>
<path class="st2" d="M56.3,57.2l-2-27.6c-13-6.5-27.4-9.7-41.9-9.4c20.4,15.8,18.8,47.4,32.9,69c9,13.6,23.8,22.3,40,23.7l17,9.8
	c3.9-26-3.7-52.5-20.9-72.3C76.6,44.9,71.1,40.1,65.1,36C61.4,46.6,56.3,57.2,56.3,57.2z"/>
<polygon class="st4" points="635.3,685 622,685 615.7,633.8 635.3,633.8 "/>
<path class="st6" d="M638.7,697.9l-42.8,0v-0.5c0-9.2,7.5-16.6,16.6-16.6h0l7.8-5.9l14.6,5.9l3.7,0L638.7,697.9z"/>
<polygon class="st4" points="752.2,685 738.9,685 732.6,633.8 752.2,633.8 "/>
<path class="st6" d="M755.5,697.9l-42.8,0v-0.5c0-9.2,7.5-16.6,16.6-16.6h0l7.8-5.9l14.6,5.9l3.7,0L755.5,697.9z"/>
<path class="st6" d="M732,411.2l11.2,106c0,0,14.9,106.1,12.1,120.8c-2.8,14.6,0.7,16.7,0.7,16.7l-25.4-1.8c0,0,0.7-9.1-3.5-13.2
	s-2.1-16.7-2.1-16.7l-49.4-172.6l-30,90.6c0,0-4.9,99.7-5.6,101.1c-0.7,1.4-2.8,20.2-2.8,20.2h-25.8c0,0,3.5-11.2-1.4-14.6
	s-9.1-0.7-4.9-7s5.6-13.9,4.2-17.4c-1.4-3.5-1.4-17.4-1.4-17.4s2.1-188.3,13.9-194.5C633.7,404.9,732,411.2,732,411.2z"/>
<circle class="st4" cx="679.2" cy="169.2" r="27.4"/>
<path class="st5" d="M741.5,422.7c-53.1,11-123.6-7.9-123.6-7.9l18.8-81.4l-6.7-85.2c-0.8-10.4,5.1-20.2,14.4-23.7l12.8-4.8
	l10.5-15.1l30.1,1l12,15.8l9.5,5l20.6,10.9l0.1,0v0l-6.5,62.7l-3.9,37.8c0,0,11.8,42.5,9.4,48.1c-2.4,5.6-0.3,2.9,0.3,5.9
	c0.6,3,2.4,3.2,2.7,9.1C742.2,407.1,741.5,422.7,741.5,422.7z"/>
<path class="st6" d="M677.8,195.3c4.8,0,9.6-0.5,14.3-1.4c4.7-1.1,15-9.1,17.8-13.8l0,0c2.1-3.5,3.4-8.9,4-12.9
	c1.9-10.5-0.8-21.4-7.4-29.8c-1.3-1.7-3-3.1-4.9-4c-0.2-0.1-0.4-0.1-0.5-0.2c-2.9-0.7-5.4-2.2-7.4-4.3c-0.4-0.4-0.8-0.8-1.2-1.2
	c-2.2-1.8-4.9-3-7.7-3.6c-4.5-1.1-11,0.3-19.3,4.1c-4.1,1.9-8.7,1.4-12.3,0.7c-0.4-0.1-0.8,0.1-1.1,0.4c-1.5,1.4-3.4,2.3-5.5,2.3
	c-1.3,0.1-2.5,1.9-4.1,4.2c-0.3,0.5-0.8,1.1-1.1,1.5l-0.1-0.7l-0.7,0.8c-3.6,4.1-3.1,10.4,1,13.9c1.1,1,2.4,1.7,3.8,2
	c1.3,0.3,2.6,0.5,3.9,0.5c0.8,0.1,1.6,0.1,2.4,0.2c5.2,0.9,9.5,4.5,11.3,9.4c0.8,2,3,3,5,2.2c0.3-0.1,0.6-0.3,0.9-0.5
	c1.6-1.3,3.8-1.8,5.8-1.2c0.9,0.5,1.6,1.2,1.9,2.1c0.5,1,1.2,1.8,2.2,2.4c3.2,1.6,3.6,8.9,2.7,15c-1,5.9-3,10.2-5,10.4
	c-1.6,0.2-1.7,0.3-1.8,0.6l-0.1,0.2l0.2,0.2C676,195.3,676.9,195.4,677.8,195.3z"/>
<path class="st5" d="M567.9,327.7c-44.6,0-80.8-36.2-80.8-80.8s36.2-80.8,80.8-80.8s80.8,36.2,80.8,80.8l0,0
	C648.7,291.4,612.5,327.6,567.9,327.7z M567.9,168c-43.5,0-78.8,35.3-78.8,78.8s35.3,78.8,78.8,78.8s78.8-35.3,78.8-78.8l0,0
	C646.7,203.3,611.4,168,567.9,168z"/>
<path class="st4" d="M641.6,288.2l-12.1-21c-15.7,2-45.8,22-45.8,22l-58.3,16c-5.6-1.8-11.6,1.3-13.4,6.9
	c-1.8,5.6,1.3,11.6,6.9,13.4c3.6,1.2,7.6,0.3,10.5-2.3l74.8-9.8L641.6,288.2z"/>
<path class="st5" d="M637.5,292l27.1-22.7l3.9-18.2c1.5-7.3-1.2-14.9-7.1-19.5l0,0c-8.1-6.3-19.8-5.3-26.6,2.4
	c-10,11.2-21.3,26.8-18.1,36.9l0,0.1L637.5,292z"/>
<path class="st2" d="M166.8,105.1c0,30.1-24.4,54.4-54.4,54.4c-30.1,0-54.4-24.4-54.4-54.4c0-30.1,24.4-54.4,54.4-54.4h0
	c29.9-0.1,54.3,24,54.4,54C166.8,104.8,166.8,104.9,166.8,105.1z"/>
<path class="st6" d="M134.6,92.1L134.6,92.1l-0.3,0.5c2.4-5.9,0.2-13.2-4.1-17.6c-4.3-4.5-10.2-6.5-16.1-7.3c-4.3-0.8-8.8-0.4-13,1
	c-6,2.3-10.6,7.6-14.4,13.2c-1.7,2.5-3.5,5.4-3.3,8.6c0.2,2.9,1.9,5.4,3.3,7.9c1.4,2.5,2.6,5.6,1.6,8.3c-0.6,1.6-1.9,2.8-3,4.1
	s-1.9,3.1-1.4,4.8c0.5,1.3,1.6,2.3,2.9,2.5c1.3,0.2,2.6,0.2,3.9-0.1l33.4-5c7.8-1.2,13.1-8.4,11.9-16.2
	C136,95.2,135.4,93.5,134.6,92.1z"/>
<circle class="st9" cx="109.8" cy="96.5" r="16.3"/>
<path class="st10" d="M153.2,141c-19.6,22.3-53.5,24.8-76.2,5.5l4.7-13c2.2-4.7,6.7-7.9,11.9-8.2l3-0.2l7.1-6.1c0,0,19.1-0.7,18.8-1
	l11.6,7l0,0l4.5,0.3c5.2,0.3,9.8,3.5,11.9,8.2L153.2,141z"/>
<path class="st6" d="M125.3,81.3c-0.4-2.2-2.7-3.2-4.6-3.7c-5.6-1.4-11.5-1.8-17.3-0.9c-4.2,0.6-8.5,1.9-11.6,5.2
	c-2.5,2.8-3.9,6.3-3.9,10c-0.1,2.2,0.4,4.4,1.4,6.4c1,1.8,2.8,3,4.9,3.2l0.2,0.7c8.5-1.4,16.1-6.4,20.6-13.8
	c-0.9,3.2-2.7,6.1-5.2,8.3c5.5-2.2,10.3-5.9,13.9-10.7C124.6,84.6,125.6,83,125.3,81.3z"/>
<circle class="st2" cx="218.1" cy="188.9" r="37"/>
<circle class="st7" cx="217.1" cy="181.7" r="11.8"/>
<path class="st11" d="M245.8,213.7c-13.3,15.2-36.4,16.8-51.8,3.7l3.2-8.9c1.5-3.2,4.6-5.3,8.1-5.6l2-0.1l4.8-4.2
	c0,0,13-0.5,12.8-0.7l7.9,4.7l0,0l3.1,0.2c3.5,0.2,6.6,2.3,8.1,5.6L245.8,213.7z"/>
<path class="st6" d="M229.5,174.4c-1-3.6-3.3-6.7-6.4-8.7c-2.5-1.6-5.6-2.4-8.4-1.6c-2.8,0.8-5.1,3.6-5,6.6
	c-1.1-0.3-2.2,0.1-2.9,0.9c-0.7,0.8-1.2,1.8-1.4,2.9c-0.9,3.3-0.8,6.9,0.2,10.2l-0.1,0.5c1.4-0.2,2.4-1.4,3.1-2.7
	c0.6-1.3,1-2.6,1.7-3.9s1.9-2.3,3.3-2.4l-0.1,2.1c1.2-0.6,2.4-1.2,3.6-1.8c-0.3,0.7-0.6,1.4-0.9,2c1-0.4,2.1-0.9,3.1-1.3
	c-0.1,0.7-0.2,1.3-0.3,2c1.1-2.3,3.9-3.3,6.2-2.2c0.1,0,0.1,0.1,0.2,0.1c1.2,0.8,2.1,2.1,2.5,3.6c0.4,1.5,0.6,2.9,0.6,4.4
	C230.2,181.8,230.5,178,229.5,174.4z"/>
<path class="st12" d="M469.4,652.1c-1.5-2.5-1.9-5.8-0.4-8.2c1,3,3,5.5,5.7,7.1c1,0.6,2.3,1.2,2.7,2.3c0.3,0.7,0.1,1.5-0.2,2.2
	s-0.8,1.3-1.3,1.9l0,0.2C473.4,656.2,471,654.5,469.4,652.1z"/>
<path class="st3" d="M469.1,643.9c-0.1,2.4,0.5,4.7,1.8,6.7c0.3,0.4,0.6,0.8,1,1.2c0.4,0.3,0.9,0.5,1.4,0.6c0.5,0.1,0.9,0.1,1.4,0.3
	c0.4,0.2,0.8,0.6,0.9,1c0.2,0.6,0.2,1.2,0.2,1.8c0,0.7-0.1,1.3,0.2,2c0,0.1-0.1,0.1-0.1,0c-0.5-1.1,0-2.3-0.2-3.4
	c-0.1-0.5-0.4-1-0.9-1.3c-0.4-0.2-0.9-0.2-1.4-0.3c-0.5-0.1-0.9-0.2-1.4-0.5c-0.4-0.3-0.8-0.7-1-1.1c-0.7-1-1.2-2-1.5-3.1
	c-0.4-1.3-0.5-2.6-0.5-3.9C469,643.8,469.1,643.8,469.1,643.9L469.1,643.9z"/>
<path class="st12" d="M478.8,642.6c0,0,0,0.1,0,0.1c-0.2,0.7-0.4,1.3-0.5,2c0,0.1,0,0.1,0,0.2c-0.2,1.6-0.1,3.3,0.2,4.9
	c0.2,0.6,0.4,1.3,0.6,1.9c0.3,0.8,0.8,1.7,0.8,2.6c0,0.1,0,0.2,0,0.3l-3.7,3c0,0,0,0,0,0l-0.1,0.1c0,0,0-0.1,0-0.1c0,0,0,0,0-0.1
	c0,0,0,0,0,0c0,0,0,0,0,0c0,0,0,0,0,0c-0.1-0.2-0.2-0.4-0.2-0.5c0,0,0,0,0,0c-0.6-1.4-1.1-2.8-1.4-4.3c0,0,0-0.1,0-0.1
	c-0.1-0.7-0.2-1.3-0.2-2c0-0.4,0-0.7,0-1.1c0.1-1,0.3-1.9,0.7-2.8c0.8-1.8,2.1-3.2,3.8-4C478.7,642.6,478.7,642.6,478.8,642.6z"/>
<path class="st3" d="M478.8,642.7c-1.5,1.8-2.4,4.1-2.6,6.5c0,0.5,0,1,0.1,1.5c0.1,0.5,0.4,0.9,0.7,1.3c0.3,0.3,0.7,0.6,0.9,1
	c0.2,0.4,0.3,0.9,0.1,1.4c-0.2,0.6-0.6,1.1-0.9,1.5c-0.4,0.5-0.9,1-1,1.7c0,0.1-0.1,0-0.1,0c0.3-1.1,1.4-1.8,1.9-2.9
	c0.2-0.5,0.3-1,0.1-1.5c-0.2-0.4-0.6-0.7-0.9-1.1c-0.4-0.3-0.6-0.8-0.8-1.2c-0.1-0.5-0.2-1-0.2-1.5c0.1-1.2,0.3-2.3,0.7-3.4
	C477.2,644.7,477.8,643.6,478.8,642.7C478.7,642.5,478.8,642.6,478.8,642.7L478.8,642.7z"/>
<path class="st3" d="M476.2,648.4c-0.8-0.2-1.4-0.9-1.4-1.7c0,0,0-0.1,0.1-0.1c0,0,0.1,0,0.1,0.1c0,0.8,0.5,1.5,1.3,1.6
	C476.3,648.3,476.3,648.4,476.2,648.4L476.2,648.4z"/>
<path class="st3" d="M476.8,651.8c0.7-0.4,1.2-1.1,1.4-1.9c0-0.1,0.1,0,0.1,0c-0.2,0.8-0.7,1.6-1.5,2
	C476.8,652,476.8,651.8,476.8,651.8L476.8,651.8z"/>
<path class="st3" d="M477.3,644.8c0.3,0.1,0.6,0.1,0.9-0.1c0.1,0,0.1,0.1,0.1,0.1c-0.3,0.2-0.7,0.2-1,0.1
	C477.2,645,477.2,644.9,477.3,644.8C477.2,644.9,477.3,644.8,477.3,644.8z"/>
<path class="st12" d="M480.7,654.2h-8c-0.1,0-0.2,0.1-0.2,0.2v0.5c0.3,1,0.6,2,1,3h7.3c0.1,0,0.2-0.1,0.2-0.2c0,0,0,0,0,0v-3.3
	C480.9,654.3,480.8,654.2,480.7,654.2z"/>
<path class="st13" d="M480,659h-6.1c0.1,0.2,0.1,0.3,0.2,0.5h5.9C480.3,659.5,480.3,658.9,480,659z"/>
<path class="st13" d="M480,660.1h-5.6c0.1,0.2,0.2,0.3,0.3,0.5h5.3C480.3,660.6,480.3,660.1,480,660.1z"/>
<path class="st13" d="M480,661.3h-5c0.1,0.2,0.2,0.3,0.3,0.5h4.7C480.3,661.8,480.3,661.3,480,661.3z"/>
<path class="st2" d="M348.7,89.1c0,25-20.4,45.3-45.4,45.2c-25,0-45.3-20.4-45.2-45.4c0-25,20.4-45.3,45.4-45.2
	c25,0,45.2,20.2,45.2,45.2C348.7,89,348.7,89.1,348.7,89.1z"/>
<circle class="st2" cx="384.7" cy="208.7" r="68.4"/>
<path class="st6" d="M282.4,74.3c1.9-6,6.1-11.5,12-13.5c5.9-2,14.5,1.1,19,5.5c8.1,8.1,10.1,35.8,4.5,44.6
	c-1.1-0.1-4.9-0.1-6.1-0.1l-1.6-5.3v5.2c-1.8-0.1-3.6-0.1-5.4-0.1c-12.6-0.2-22.9-10.3-23.2-22.9C281.5,81.9,281.7,76.7,282.4,74.3z
	"/>
<circle class="st4" cx="302.7" cy="81.2" r="12.9"/>
<path class="st6" d="M291.6,69.8l14.9-7.4l0,0c6.2,2.8,10.4,8.7,10.9,15.5l0.4,4.4l-6.2-1.6l-0.7-5.7l-1.1,5.2l-2.9-0.7l0-8.8
	l-2.9,8.8l-10.3-2.4L291.6,69.8z"/>
<circle class="st6" cx="414.3" cy="567.1" r="5.1"/>
<circle class="st6" cx="422.4" cy="578.7" r="12.9"/>
<path class="st6" d="M409.5,553.3c-3.5-1.6-8-0.9-10.9,1.7c-2.9,2.5-4.3,6.7-3.8,10.5c0.6,3.9,3,7.3,5.2,10.6
	c2.2,3.3,4.3,6.9,4.3,10.9c0,5.9-4.8,10.8-10.8,10.8c3.4,1.4,6.8,2.9,10.5,2.7c3.6-0.2,7.5-2.5,8.1-6.1c0.4-2.6-0.8-5.1-1.9-7.5
	c-1.7-3.9-3-8-3.7-12.2c-0.4-2-0.6-4.1,0.1-6.1c1.1-2.9,3.9-4.8,7.1-4.7l1.2-1.1C415.4,558.9,413,554.9,409.5,553.3z"/>
<circle id="bf829f4c-57e2-46a5-971d-584c2690be65" class="st4" cx="383.2" cy="195.1" r="20.8"/>
<path class="st14" d="M435.2,253.9c-24.7,28.1-67.3,31.1-95.7,6.9l5.9-16.4c2.7-5.9,8.5-9.9,15-10.3l3.7-0.2l8.9-7.7
	c0,0,24-0.9,23.6-1.3l14.5,8.7l0-0.1l5.7,0.3c6.5,0.4,12.3,4.3,15,10.3L435.2,253.9z"/>
<path class="st15" d="M337,119.1c-8.9,10.1-21.2,15.3-33.7,15.4c-10.5,0.1-21.1-3.5-29.7-10.8l3.9-10.8c1.8-3.9,5.6-6.5,9.9-6.8
	l2.5-0.2l5.9-5.1c0,0,15.9-0.6,15.7-0.8l9.6,5.8l0,0l3.8,0.2c4.3,0.3,8.1,2.9,9.9,6.8L337,119.1z"/>
<path class="st6" d="M364.3,204.6c0-0.1-0.1-0.2-0.1-0.3c-0.1,0.1-0.2,0.1-0.2,0.2L364.3,204.6z"/>
<path class="st6" d="M408.1,187.7c-0.2-4.3-2.2-8.2-5.6-10.9c-1.2-1-2.6-1.8-3.4-3.1c-0.5-0.9-0.8-1.9-1.2-2.9
	c-1.6-3.8-6.1-5.8-10.2-5.2c-4.1,0.6-7.6,3.3-10,6.7c-3.4-1.6-7.4-0.2-9.1,3.2c-0.7,1.5-0.9,3.1-0.4,4.7c-2.1-1.7-5.5-0.3-6.8,2
	c-1.3,2.4-1.1,5.3-0.7,7.9c0.7,4.8,1.9,9.6,3.5,14.2c2.1-1.8,1.9-5.1,1.7-7.9c-0.3-2.9-0.1-6.4,2.4-7.9c2.4-1.4,5.4,0.1,8.1,0.9
	c4.3,1.2,8.9,0.5,12.7-2c1.4-1,2.7-2.1,4.2-2.9c1.5-0.8,3.4-1,4.8-0.1c1.3,0.9,1.8,2.5,2.2,4c1,3.5,2.1,7,3.1,10.6
	C406.6,196.1,408.2,191.9,408.1,187.7z"/>
<path class="st16" d="M346.6,651.4h-12.3c-0.6,0-1.1,0.2-1.5,0.7c-1.6-0.3-3.1,0.8-3.4,2.3c-0.3,1.6,0.8,3.1,2.3,3.4
	c0.6,0.1,1.2,0,1.8-0.2l1,3.3c0.2,0.8,1,1.4,1.8,1.4h8c0.8,0,1.6-0.5,1.8-1.4l2.1-7c0.3-1-0.3-2.1-1.3-2.4
	C347,651.5,346.8,651.4,346.6,651.4z M332.4,657c-1.1,0-2.1-0.9-2.1-2.1s0.9-2.1,2.1-2.1c0,0,0.1,0,0.1,0c-0.1,0.3-0.1,0.7,0,1
	l0.9,2.9C333.1,656.9,332.8,657,332.4,657z"/>
<path class="st16" d="M47.8,642.7H35.5c-0.6,0-1.1,0.2-1.5,0.7c-1.6-0.3-3.1,0.8-3.4,2.3c-0.3,1.6,0.8,3.1,2.3,3.4
	c0.6,0.1,1.2,0,1.8-0.2l1.4,12c0.2,0.8,1,1.4,1.8,1.4h8c0.8,0,1.6-0.5,1.8-1.4l1.7-15.7c0.3-1-0.3-2.1-1.3-2.4
	C48.2,642.7,48,642.7,47.8,642.7z M33.6,648.3c-1.1,0-2.1-0.9-2.1-2.1s0.9-2.1,2.1-2.1c0,0,0.1,0,0.1,0c-0.1,0.3-0.1,0.7,0,1
	l0.9,2.9C34.3,648.2,33.9,648.3,33.6,648.3z"/>
<path class="st12" d="M192.7,632.7c0-1.8-1.5-3.3-3.3-3.3s-3.3,1.5-3.3,3.3s1.5,3.3,3.3,3.3c0,0,0.1,0,0.1,0
	c0.8,2.7,1.3,5.4,1.3,8.2c0,1.4,0,2.8-0.2,4.2c-0.1,1-0.4,2.1-1.4,2.6c-0.7,0.3-0.1,1.4,0.6,1.1c1.1-0.5,1.6-1.7,1.9-2.8
	c0.3-1.5,0.4-2.9,0.4-4.4c0-3.1-0.4-6.2-1.3-9.1C191.9,635.2,192.7,634,192.7,632.7z"/>
<path id="a0da58c6-f23b-4b1c-a031-0451c6211c58-1022" class="st12" d="M191.7,652.8c0,0-4.5-11,8.9-19.2L191.7,652.8z"/>
<path id="fe698360-631b-4312-af6d-5610d78e8b38-1023" class="st12" d="M191.5,652.6c0,0-1.4-7.8-11.9-7.8L191.5,652.6z"/>
<path class="st16" d="M198.9,662.2h-18.3c-0.7,0-1.4-0.4-1.7-1.1l-4-8.2c-0.5-0.9-0.1-2,0.9-2.5c0.3-0.1,0.5-0.2,0.8-0.2h26.2
	c1,0,1.9,0.8,1.9,1.9c0,0.3-0.1,0.6-0.2,0.8l-4,8.2C200.3,661.8,199.6,662.2,198.9,662.2z"/>
<path class="st5" d="M548.6,662.8H20.4c-0.4,0-0.7-0.3-0.7-0.7s0.3-0.7,0.7-0.7h528.2c0.4,0,0.7,0.3,0.7,0.7
	S548.9,662.8,548.6,662.8z"/>
<polygon class="st2" points="91.4,638.5 83.3,608 82.3,604.4 83.2,603.6 98.3,596.2 119.8,596.7 132.4,603.2 132.5,608 133.1,651 
	135.6,661.6 89.4,661.6 93,644.8 "/>
<path class="st2" d="M144.5,661.6h-12l-3.3-24L130,608l0.1-4l2.3-0.8c1.7,1.3,3.2,2.9,4.2,4.8c1.5,2.6,2.7,6.3,2.4,11.2
	c0,0,0.3,5.9,0,9.7C138.9,631.6,142,648.4,144.5,661.6z"/>
<path class="st2" d="M91.4,638.2l0,0.3l-3.2,23.1H74.3c1.1-13.1,2.4-29.4,2.2-32c-0.3-3.9,0-9.7,0-9.7c-0.3-5.4,1.1-9.2,2.8-11.8
	c0.8-1.3,1.8-2.5,3-3.5c0.3-0.2,0.5-0.4,0.8-0.6l2.3,0.7l0.6,3.4L91.4,638.2z"/>
<path class="st17" d="M93,576.1c0,8.2,6.7,14.9,14.9,14.9s14.9-6.7,14.9-14.9s-6.7-14.9-14.9-14.9l0,0l0,0
	C99.7,561.2,93,567.8,93,576.1C93,576.1,93,576.1,93,576.1z"/>
<path class="st5" d="M155.5,659.2L155.5,659.2c0,1.8-1.4,3.2-3.2,3.2H66.5c-1.8,0-3.2-1.4-3.2-3.2l0,0l0,0c0-1.8,1.4-3.2,3.2-3.2h1
	c-0.1-0.2-0.1-0.4-0.1-0.6v-43.8c0-1.5,1.2-2.8,2.8-2.8h78.5c1.5,0,2.8,1.2,2.8,2.8v43.8c0,0.2,0,0.4-0.1,0.6h1
	C154.1,656,155.5,657.4,155.5,659.2z"/>
<path class="st6" d="M248.9,589v-8.8c0-11,8.9-20,20-20c11,0,20,8.9,20,20v8.8c0,2.5-2,4.5-4.5,4.5h-27l-2.2-4.7v4.7h-1.7
	C250.9,593.4,248.9,591.4,248.9,589z"/>
<path class="st4" d="M283.4,617.1l0.9,9.3l0.4,4.2l0.6,6.7l0.1,0.9l0.5,5.5l0,0.1c0.7,2.1,2.6,3.5,4.8,3.5l23.1-0.4l6.5-0.1
	c0.1,0.2,0.2,0.4,0.4,0.5c1.2,1.4,2.9,2.3,4.7,2.3c1.8,0.1,3.6-0.6,4.9-1.9c0.1-0.1,0.2-0.3,0.4-0.4c1.8-2.2,1.9-5.2,0.4-7.5
	c-1-1.5-2.6-2.6-4.4-2.9c-1.8-0.3-3.6,0.2-5,1.4c-0.2,0.2-0.4,0.4-0.6,0.6l-7.2-1l-18.1-2.6l-0.8-10.4c0,0,0-0.1,0-0.1l-0.6-8.4
	c-0.2-2.9-2.7-5.1-5.6-5.1c-0.5,0-0.9,0.1-1.4,0.2c-0.5,0.1-1,0.3-1.4,0.6C284.2,613,283.2,615,283.4,617.1z"/>
<circle class="st4" cx="269.6" cy="580.9" r="13.1"/>
<path class="st2" d="M287.1,602.7l2.4-0.8c0,0,4.8,2,4.8,5.5s0.8,17.8,0.8,17.8l-10.7,1.2L287.1,602.7z"/>
<path class="st4" d="M236.5,662h9.4l3.2-27l1.2-9.8l0.2-1.3l0.9-7.2c0.1-2.8-2-5.1-4.7-5.2c-1-0.1-2,0.2-2.9,0.7
	c-0.2,0.1-0.4,0.3-0.6,0.4c-1.1,0.9-1.8,2.2-1.8,3.6l-0.8,7.9L236.5,662z"/>
<path class="st2" d="M250.6,625.2l-10.7-1.2c0,0,0.8-14.3,0.8-17.8s4.8-5.5,4.8-5.5l2.4,0.8L250.6,625.2z"/>
<path class="st6" d="M247.1,662h44.7c-1.4-5.4-3.4-10.7-5.8-15.7c-0.4-0.8-0.6-1.2-0.6-1.2s-19-0.4-30.9,4.4c-0.8,0.3-1.4,0.8-2,1.4
	C250.5,653,248.7,657,247.1,662z"/>
<path class="st2" d="M256.5,598.3c0,0-0.4-0.2,22.2,0.6l9.4,2.6l1.3,0.3c0,0-1.2,23.8-4.4,28.1c-3.2,4.4-2.4,6.7-1.6,7.1
	c0.8,0.4,2.8-0.4,1.6,1.6c-1.2,2-2.8,0.8-1.2,2c1.6,1.2,2.4,5.5,2.4,5.5l-34.9,4.8c0,0-1.2-15.5-4.4-23.4s-4-11.1-4-11.1l2.4-15.9
	L256.5,598.3z"/>
<path class="st6" d="M255.5,573.5c0-7.1,5.8-12.9,12.9-12.9s12.9,5.8,12.9,12.9v5.8h-25.8V573.5z"/>
<path class="st5" d="M312.2,658.7v1.1c0,1.4-1.1,2.5-2.5,2.5h-84.4c-1.4,0-2.5-1.1-2.5-2.5v-1.1c0-1.4,1.1-2.5,2.5-2.5h1.5
	c-0.1-0.2-0.1-0.4-0.1-0.6v-43.1c0-1.2,1-2.1,2.1-2.1h77.3c1.2,0,2.1,1,2.1,2.1v43.1c0,0.2,0,0.4-0.1,0.6h1.5
	C311.1,656.2,312.2,657.3,312.2,658.7z"/>
<circle class="st4" cx="422.6" cy="580.7" r="13.1"/>
<path class="st2" d="M440.1,602.5l2.4-0.8c0,0,4.8,2,4.8,5.5c0,3.6,0.8,17.8,0.8,17.8l-10.7,1.2L440.1,602.5z"/>
<path class="st4" d="M389.5,661.8h9.4l3.2-27l1.2-9.8l0.2-1.3l0.9-7.2c0.1-2.8-2-5.1-4.7-5.2c-1-0.1-2,0.2-2.9,0.7
	c-0.2,0.1-0.4,0.3-0.6,0.4c-1.1,0.9-1.8,2.2-1.8,3.6l-0.8,7.9L389.5,661.8z"/>
<path class="st2" d="M403.6,625.1l-10.7-1.2c0,0,0.8-14.3,0.8-17.8s4.8-5.5,4.8-5.5l2.4,0.8L403.6,625.1z"/>
<path class="st6" d="M400.2,661.8h44.7c-1.4-5.4-3.4-10.7-5.8-15.7c-0.4-0.8-0.6-1.2-0.6-1.2s-19-0.4-30.9,4.4
	c-0.8,0.3-1.4,0.8-2,1.4C403.5,652.8,401.7,656.8,400.2,661.8z"/>
<path class="st2" d="M409.6,598.1c0,0-0.4-0.2,22.2,0.6l9.4,2.6l1.3,0.3c0,0-1.2,23.8-4.4,28.1c-3.2,4.4-2.4,6.7-1.6,7.1
	c0.8,0.4,2.8-0.4,1.6,1.6c-1.2,2-2.8,0.8-1.2,2c1.6,1.2,2.4,5.5,2.4,5.5l-34.9,4.8c0,0-1.2-15.5-4.4-23.4c-3.2-7.9-4-11.1-4-11.1
	l2.4-15.9L409.6,598.1z"/>
<path class="st5" d="M465.3,658.5v1.1c0,1.4-1.1,2.5-2.5,2.5h-84.4c-1.4,0-2.5-1.1-2.5-2.5v-1.1c0-1.4,1.1-2.5,2.5-2.5h1.5
	c-0.1-0.2-0.1-0.4-0.1-0.6v-43.1c0-1.2,1-2.1,2.1-2.1h77.3c1.2,0,2.1,1,2.1,2.1v43.1c0,0.2,0,0.4-0.1,0.6h1.5
	C464.1,656,465.3,657.1,465.3,658.5z"/>
<path class="st6" d="M124.8,563.7c-1.2-0.9-2.2-2.1-2.9-3.5c-0.2-0.5-0.6-1-1-1.4l-2.8,2.2l1.7-3c-4.4-2.7-13-1.3-13-1.3
	c-9-4.8-12.3,1.2-13.4,5c-0.5,1.4-1.3,2.6-2.3,3.6c-2.2,2.1,1.3,6.2,1.3,6.2v0.3l0.8,5.6c0,0,0.8-3.7,3-6.4c1.4-1.7,3.6-2.6,4.7-2.6
	c13.5,0.3,16,0.8,16,0.8s2.3,1.2,3.3,1.7c3.3,1.7,2.5,7.7,2.5,7.7l2.4-10.7C125.7,565.4,125.4,564.2,124.8,563.7z"/>
<path class="st12" d="M192.6,257.2h-50.8c-2.8,0-5.1-2.3-5.1-5.1v-31.3c0-2.8,2.3-5.1,5.1-5.1h50.8c2.8,0,5.1,2.3,5.1,5.1v31.3
	C197.7,254.9,195.4,257.2,192.6,257.2z"/>
<path class="st3" d="M172.4,253.2h-27.1c-2.7,0-4.8-2.2-4.8-4.8v-23.9c0-2.7,2.2-4.8,4.8-4.8H189c2.7,0,4.8,2.2,4.8,4.8v7.3
	C193.8,243.6,184.2,253.2,172.4,253.2z"/>
<path class="st8" d="M184.7,232.7h-35c-0.6,0-1.1-0.5-1.1-1.1c0-0.6,0.5-1.1,1.1-1.1c0,0,0,0,0,0h35c0.6,0,1.1,0.5,1.1,1.1
	C185.8,232.2,185.3,232.7,184.7,232.7C184.7,232.7,184.7,232.7,184.7,232.7L184.7,232.7z"/>
<path class="st8" d="M160.3,237.7h-8.1c-0.9,0-1.7-0.7-1.7-1.6c0-0.9,0.7-1.6,1.7-1.6c0,0,0,0,0,0h8.1c0.9,0,1.7,0.7,1.7,1.6
	C162,237,161.3,237.7,160.3,237.7C160.3,237.7,160.3,237.7,160.3,237.7L160.3,237.7z"/>
<path class="st8" d="M164.9,241.7h-15.2c-0.6,0-1.1-0.5-1.1-1.1c0-0.6,0.5-1.1,1.1-1.1h15.2c0.6,0,1.1,0.5,1.1,1.1
	S165.5,241.7,164.9,241.7L164.9,241.7z"/>
<path class="st12" d="M602,365.9h-50.8c-2.8,0-5.1-2.3-5.1-5.1v-31.3c0-2.8,2.3-5.1,5.1-5.1H602c2.8,0,5.1,2.3,5.1,5.1v31.3
	C607.1,363.6,604.8,365.9,602,365.9z"/>
<path class="st3" d="M581.8,361.9h-27.1c-2.7,0-4.8-2.2-4.8-4.8v-23.9c0-2.7,2.2-4.8,4.8-4.8h43.7c2.7,0,4.8,2.2,4.8,4.8v7.3
	C603.2,352.3,593.6,361.9,581.8,361.9z"/>
<path class="st8" d="M594,341.5h-35c-0.6,0-1.1-0.5-1.1-1.1c0-0.6,0.5-1.1,1.1-1.1c0,0,0,0,0,0h35c0.6,0,1.1,0.5,1.1,1.1
	C595.2,341,594.7,341.5,594,341.5C594,341.5,594,341.5,594,341.5L594,341.5z"/>
<path class="st8" d="M569.7,346.4h-8.1c-0.9,0-1.7-0.7-1.7-1.6s0.7-1.6,1.7-1.6c0,0,0,0,0,0h8.1c0.9,0,1.7,0.7,1.7,1.6
	S570.7,346.4,569.7,346.4C569.7,346.4,569.7,346.4,569.7,346.4L569.7,346.4z"/>
<path class="st8" d="M574.2,350.5h-15.2c-0.6,0-1.1-0.5-1.1-1.1c0-0.6,0.5-1.1,1.1-1.1h15.2c0.6,0,1.1,0.5,1.1,1.1
	S574.9,350.5,574.2,350.5L574.2,350.5z"/>
<path class="st12" d="M87.9,199H23.8c-3.6,0-6.5-2.9-6.5-6.5V153c0-3.6,2.9-6.5,6.5-6.5h64.1c3.6,0,6.5,2.9,6.5,6.5v39.5
	C94.4,196.1,91.5,199,87.9,199z"/>
<path class="st3" d="M62.4,193.9H28.3c-3.4,0-6.1-2.7-6.1-6.1v-30.1c0-3.4,2.7-6.1,6.1-6.1h55.1c3.4,0,6.1,2.7,6.1,6.1v9.2
	C89.4,181.8,77.3,193.9,62.4,193.9z"/>
<path class="st8" d="M77.9,168.1H33.8c-0.8,0-1.4-0.6-1.4-1.4s0.6-1.4,1.4-1.4h44.1c0.8,0,1.4,0.6,1.4,1.4S78.7,168.1,77.9,168.1
	L77.9,168.1z"/>
<path class="st8" d="M40.7,173.8h-6.9c-0.8,0-1.4-0.6-1.4-1.4c0-0.8,0.6-1.4,1.4-1.4h6.9c0.8,0,1.4,0.6,1.4,1.4
	C42.1,173.2,41.5,173.8,40.7,173.8C40.7,173.8,40.7,173.8,40.7,173.8z"/>
<path class="st8" d="M52.9,179.5H33.8c-0.8,0-1.4-0.6-1.4-1.4c0-0.8,0.6-1.4,1.4-1.4h19.1c0.8,0,1.4,0.6,1.4,1.4
	C54.3,178.9,53.7,179.5,52.9,179.5L52.9,179.5z"/>
<g>
	<defs>
		<path id="SVGID_1_" d="M269.9,426.9c-10.7,0-19.3,8.8-19.3,19.7c0,2.7,0.5,5.2,1.5,7.5c0.2,0.5,0.3,1.1,0.2,1.6
			c-0.6,2.7-1.6,8.2-1.6,8.2c-0.3,1.5,1,2.8,2.5,2.4l7.2-1.7c0.8-0.2,1.6-0.1,2.3,0.2c2.3,0.9,4.7,1.5,7.3,1.5
			c10.7,0,19.3-8.8,19.3-19.7S280.6,426.9,269.9,426.9z"/>
	</defs>
	<clipPath id="SVGID_2_">
		<use xlink:href="#SVGID_1_"  style="overflow:visible;"/>
	</clipPath>
	<g class="st18">
		
			<linearGradient id="SVGID_3_" gradientUnits="userSpaceOnUse" x1="395.9369" y1="513.2164" x2="381.4339" y2="497.873" gradientTransform="matrix(0.8463 0.4409 -0.4276 0.821 153.5852 -131.8203)">
			<stop  offset="0" style="stop-color:#E52163"/>
			<stop  offset="0.1736" style="stop-color:#D01C5A"/>
			<stop  offset="0.6648" style="stop-color:#711131"/>
		</linearGradient>
		<path class="st19" d="M250.4,454.5l-4.8,3.7c-1.3,6.3-2.3,11.7-2.3,13.4c0.3,1.4,0.1,3.8,7.9,2.3c7.8-1.5,44.4-14.2,44.4-14.2
			l-2.5-9.6l-26.4-2.3L250.4,454.5z"/>
		<g>
			<defs>
				<path id="SVGID_4_" d="M257.8,434.4l-10.7,16.5c-0.6,2.5-1.1,5.1-1.6,7.5c5.1-2.5,30.1-13.6,50.1,1.2c0,0,7-1.9,7.1-7.9
					c0.1-6-10.7-15.2-17.7-21.1C278,424.7,257.8,434.4,257.8,434.4z"/>
			</defs>
			
				<linearGradient id="SVGID_5_" gradientUnits="userSpaceOnUse" x1="407.1417" y1="497.2408" x2="349.9454" y2="495.2106" gradientTransform="matrix(0.8463 0.4409 -0.4276 0.821 153.5852 -131.8203)">
				<stop  offset="0" style="stop-color:#E52163"/>
				<stop  offset="0.1736" style="stop-color:#D01C5A"/>
				<stop  offset="0.6648" style="stop-color:#711131"/>
			</linearGradient>
			<use xlink:href="#SVGID_4_"  style="overflow:visible;fill-rule:evenodd;clip-rule:evenodd;fill:url(#SVGID_5_);"/>
			<clipPath id="SVGID_6_">
				<use xlink:href="#SVGID_4_"  style="overflow:visible;"/>
			</clipPath>
			<g class="st20">
				
					<linearGradient id="SVGID_7_" gradientUnits="userSpaceOnUse" x1="417.6063" y1="517.6633" x2="366.9599" y2="515.8656" gradientTransform="matrix(0.8463 0.4409 -0.4276 0.821 153.5852 -131.8203)">
					<stop  offset="0.3352" style="stop-color:#711131"/>
					<stop  offset="0.8264" style="stop-color:#D01C5A"/>
					<stop  offset="1" style="stop-color:#E52163"/>
				</linearGradient>
				<path class="st21" d="M278.2,488.5l17.5-28.9c0,0-19.2-18.4-51.1-0.7C212.7,476.5,278.2,488.5,278.2,488.5z"/>
			</g>
		</g>
		<g>
			<defs>
				<path id="SVGID_8_" d="M247.1,451c2.3-2.8,17.7-21.1,38-20.4c0,0-20.8-17.9-24.5-18.1c-2.8-0.2-4.2-0.3-8.9,18
					C251.7,431.2,249.3,441.1,247.1,451z"/>
			</defs>
			
				<linearGradient id="SVGID_9_" gradientUnits="userSpaceOnUse" x1="375.9569" y1="490.4833" x2="343.1664" y2="487.9482" gradientTransform="matrix(0.8463 0.4409 -0.4276 0.821 153.5852 -131.8203)">
				<stop  offset="0" style="stop-color:#E52163"/>
				<stop  offset="0.1736" style="stop-color:#D01C5A"/>
				<stop  offset="0.6648" style="stop-color:#711131"/>
			</linearGradient>
			<use xlink:href="#SVGID_8_"  style="overflow:visible;fill-rule:evenodd;clip-rule:evenodd;fill:url(#SVGID_9_);"/>
			<clipPath id="SVGID_10_">
				<use xlink:href="#SVGID_8_"  style="overflow:visible;"/>
			</clipPath>
			<g class="st22">
				
					<linearGradient id="SVGID_11_" gradientUnits="userSpaceOnUse" x1="394.3398" y1="497.5939" x2="369.1368" y2="496.6993" gradientTransform="matrix(0.8463 0.4409 -0.4276 0.821 153.5852 -131.8203)">
					<stop  offset="0.3352" style="stop-color:#711131"/>
					<stop  offset="0.8264" style="stop-color:#D01C5A"/>
					<stop  offset="1" style="stop-color:#E52163"/>
				</linearGradient>
				<path class="st23" d="M284.6,432.8l0.5-2.2c0,0-19.7-3.7-38.3,20.8C228.3,475.9,284.6,432.8,284.6,432.8z"/>
			</g>
		</g>
	</g>
</g>
<ellipse class="st24" cx="262" cy="446.6" rx="2.8" ry="2.8"/>
<ellipse class="st24" cx="269.9" cy="446.6" rx="2.8" ry="2.8"/>
<ellipse class="st24" cx="277.7" cy="446.6" rx="2.8" ry="2.8"/>
<path class="st6" d="M429.4,568.7c-6.1-3.7-14.2-1.8-17.9,4.3c-1.3,2.1-1.9,4.6-1.9,7c5.8,1.5,11.9,2.6,18.1,0.3l1.5-3.6l0.9,3.6
	c1.9,0.8,3.8,1.4,5.7,0C435.8,575.7,433.4,571.2,429.4,568.7z"/>
<g>
	<g>
		<path class="st25" d="M173.9,431c-9.8,0-17.7,7.9-17.7,17.7c0,3.3,0.9,6.5,2.5,9.1l-3.2,9.5l9.8-3.1c2.5,1.4,5.4,2.2,8.5,2.2
			c9.8,0,17.7-7.9,17.7-17.7C191.5,438.9,183.6,431,173.9,431z M173.9,463.3c-3,0-5.8-0.9-8.1-2.4l-5.7,1.8l1.8-5.5
			c-1.8-2.4-2.8-5.4-2.8-8.6c0-8.1,6.6-14.7,14.7-14.7c8.1,0,14.7,6.6,14.7,14.7C188.6,456.7,182,463.3,173.9,463.3z M182.1,452.6
			c-0.4-0.2-2.6-1.4-3-1.6c-0.4-0.2-0.7-0.3-1,0.2c-0.3,0.4-1.2,1.4-1.5,1.7c-0.3,0.3-0.5,0.3-1,0.1c-0.4-0.2-1.9-0.8-3.5-2.4
			c-1.3-1.2-2.1-2.8-2.4-3.2c-0.2-0.5,0-0.7,0.2-0.9c0.2-0.2,0.5-0.5,0.7-0.8c0.2-0.3,0.3-0.4,0.5-0.7c0.2-0.3,0.1-0.6,0-0.8
			c-0.1-0.2-0.9-2.5-1.3-3.4c-0.3-0.9-0.7-0.8-1-0.8c-0.3,0-0.6-0.1-0.9-0.1c-0.3,0-0.8,0.1-1.2,0.5c-0.4,0.4-1.6,1.5-1.7,3.7
			c-0.1,2.2,1.5,4.4,1.7,4.7c0.2,0.3,2.9,5.1,7.4,7.1c4.5,2,4.5,1.4,5.4,1.3c0.8,0,2.7-1,3.1-2c0.4-1,0.4-1.9,0.3-2.1
			C182.9,453,182.6,452.9,182.1,452.6z"/>
	</g>
</g>
<path class="st1" d="M218.1,225.9v75.8h-49.9c-4,0-7.2,3.2-7.2,7.2v54.2c0,1.9,1.5,3.4,3.4,3.4l0,0c1.9,0,3.4,1.5,3.4,3.4v51.7"/>
<path class="st1" d="M389.5,278.8v85.2c0,4.3-3.5,7.8-7.8,7.8H181.2c-1.9,0-3.4,1.5-3.4,3.4v46.4"/>
<path class="st1" d="M116.3,159.4v211.4c0,1.9,1.5,3.4,3.4,3.4H160c1.9,0,3.4,1.5,3.4,3.4v44.1"/>
<path class="st1" d="M172.8,421.7V364c0-1.9,1.5-3.4,3.4-3.4h120.4c3.8,0,6.9-3.1,6.9-6.9V134.2"/>
<path class="st12" d="M247.6,312.4h-32.1c-1.8,0-3.2-1.3-3.2-2.8v-17.1c0-1.5,1.5-2.8,3.2-2.8h32.1c1.8,0,3.2,1.3,3.2,2.8v17.1
	C250.8,311.2,249.4,312.4,247.6,312.4z"/>
<path class="st3" d="M235.1,310.9H218c-1.7,0-3-1.2-3-2.6v-13c0-1.4,1.4-2.6,3-2.6h27.6c1.7,0,3,1.2,3,2.6v4
	C248.7,305.7,242.6,310.9,235.1,310.9z"/>
<path class="st8" d="M232.5,299.1h-12.4c-0.2,0-0.4-0.3-0.4-0.6s0.2-0.6,0.4-0.6c0,0,0,0,0,0h12.4c0.2,0,0.4,0.3,0.4,0.6
	C232.9,298.8,232.7,299.1,232.5,299.1C232.5,299.1,232.5,299.1,232.5,299.1L232.5,299.1z"/>
<path class="st8" d="M224.3,301.8h-2.7c-0.3,0-0.6-0.4-0.6-0.9c0-0.5,0.3-0.9,0.6-0.9c0,0,0,0,0,0h2.7c0.3,0,0.6,0.4,0.6,0.9
	C224.9,301.4,224.6,301.8,224.3,301.8C224.3,301.8,224.3,301.8,224.3,301.8L224.3,301.8z"/>
<path class="st8" d="M230,304h-9.6c-0.4,0-0.7-0.3-0.7-0.6c0-0.3,0.3-0.6,0.7-0.6h9.6c0.4,0,0.7,0.3,0.7,0.6S230.4,304,230,304
	L230,304z"/>
<path class="st12" d="M387.8,301.9H337c-2.8,0-5.1-2.3-5.1-5.1v-31.3c0-2.8,2.3-5.1,5.1-5.1h50.8c2.8,0,5.1,2.3,5.1,5.1v31.3
	C393,299.6,390.7,301.9,387.8,301.9z"/>
<path class="st3" d="M367.7,297.9h-27.1c-2.7,0-4.8-2.2-4.8-4.8v-23.9c0-2.7,2.2-4.8,4.8-4.8h43.7c2.7,0,4.8,2.2,4.8,4.8v7.3
	C389.1,288.3,379.5,297.9,367.7,297.9z"/>
<path class="st8" d="M367.6,277.5h-23.1c-0.4,0-0.8-0.5-0.8-1.1c0-0.6,0.3-1.1,0.8-1.1c0,0,0,0,0,0h23.1c0.4,0,0.8,0.5,0.8,1.1
	C368.4,277,368,277.5,367.6,277.5C367.6,277.5,367.6,277.5,367.6,277.5L367.6,277.5z"/>
<path class="st8" d="M355.6,282.4h-8.1c-0.9,0-1.7-0.7-1.7-1.6s0.7-1.6,1.7-1.6c0,0,0,0,0,0h8.1c0.9,0,1.7,0.7,1.7,1.6
	C357.3,281.7,356.5,282.4,355.6,282.4C355.6,282.4,355.6,282.4,355.6,282.4L355.6,282.4z"/>
<path class="st8" d="M361.3,287.3H347c-1.6,0-3-0.7-3-1.6c0-0.9,1.3-1.6,3-1.6c0,0,0,0,0,0h14.3c1.6,0,3,0.7,3,1.6
	C364.3,286.6,363,287.3,361.3,287.3C361.3,287.3,361.3,287.3,361.3,287.3L361.3,287.3z"/>
<path class="st8" d="M360.1,272.6h-15.2c-0.6,0-1.1-0.5-1.1-1.1c0-0.6,0.5-1.1,1.1-1.1h15.2c0.6,0,1.1,0.5,1.1,1.1
	S360.7,272.6,360.1,272.6L360.1,272.6z"/>
<path class="st24" d="M215.8,455.2h-3.4c-2.5,0-4.5-2-4.5-4.5v-1c0-2.5,2-4.5,4.5-4.5h3.4V455.2z"/>
<path class="st24" d="M218.7,456.2h-1.2c-1,0-1.9-0.8-1.9-1.9v-8.2c0-1,0.8-1.9,1.9-1.9h1.2c0.5,0,1,0.4,1,1v10
	C219.6,455.8,219.2,456.2,218.7,456.2z"/>
<path class="st24" d="M225.1,445.3h3.4c2.5,0,4.5,2,4.5,4.5v1c0,2.5-2,4.5-4.5,4.5h-3.4V445.3z"/>
<path class="st24" d="M222.3,444.3h1.2c1,0,1.9,0.8,1.9,1.9v8.2c0,1-0.8,1.9-1.9,1.9h-1.2c-0.5,0-1-0.4-1-1v-10
	C221.3,444.7,221.8,444.3,222.3,444.3z"/>
<line class="st26" x1="207.9" y1="450.3" x2="203.1" y2="450.3"/>
<line class="st26" x1="239" y1="450.3" x2="233" y2="450.3"/>
<line class="st27" x1="223.2" y1="453.9" x2="217.2" y2="453.9"/>
<line class="st27" x1="223.4" y1="446.6" x2="217.4" y2="446.6"/>
<line class="st1" x1="268.8" y1="476.4" x2="268.8" y2="552.4"/>
<polyline class="st1" points="264.8,476.4 264.8,530.8 107.9,530.8 107.9,552.4 "/>
<polyline class="st1" points="272.9,476.4 272.9,531.5 422.6,531.5 422.6,552.4 "/>
</svg>
