<?xml version="1.0" encoding="utf-8"?>
<!-- Generator: Adobe Illustrator 25.2.1, SVG Export Plug-In . SVG Version: 6.00 Build 0)  -->
<svg version="1.1" id="Camada_1" xmlns="http://www.w3.org/2000/svg" xmlns:xlink="http://www.w3.org/1999/xlink" x="0px" y="0px"
	 viewBox="0 0 317.8 73" style="enable-background:new 0 0 317.8 73;" xml:space="preserve">
<style type="text/css">
	.st0{display:none;fill:#FFFFFF;}
	.st1{display:none;fill:#5CE1E6;}
	.st2{fill:#FFFFFF;}
	.st3{fill:#0C0E3C;}
	.st4{clip-path:url(#SVGID_2_);}
	.st5{fill-rule:evenodd;clip-rule:evenodd;fill:url(#SVGID_3_);}
	.st6{clip-path:url(#SVGID_6_);}
	.st7{fill-rule:evenodd;clip-rule:evenodd;fill:url(#SVGID_7_);}
	.st8{clip-path:url(#SVGID_10_);}
	.st9{fill-rule:evenodd;clip-rule:evenodd;fill:url(#SVGID_11_);}
	.st10{fill-rule:evenodd;clip-rule:evenodd;fill:#FFFFFF;}
</style>
<path class="st0" d="M107.5,29.3v28.6h-5.8V45.4H89.5v12.5h-5.7V29.3h5.7v11.6h12.3V29.3H107.5z M123.1,35.1c2.2,0,4.2,0.5,5.9,1.4
	c1.8,0.9,3.1,2.3,4.1,4c1,1.7,1.5,3.8,1.5,6.1c0,2.4-0.5,4.4-1.5,6.1c-1,1.7-2.4,3.1-4.1,4c-1.7,0.9-3.7,1.4-5.9,1.4
	c-2.2,0-4.2-0.5-5.9-1.4c-1.7-0.9-3.1-2.3-4.1-4c-1-1.7-1.5-3.8-1.5-6.1c0-2.4,0.5-4.4,1.5-6.1c1-1.8,2.4-3.1,4.1-4
	C118.9,35.6,120.9,35.1,123.1,35.1z M123.1,40.1c-1.6,0-2.9,0.6-4.1,1.7c-1.1,1.1-1.7,2.7-1.7,4.9c0,2.1,0.6,3.8,1.7,4.9
	c1.1,1.1,2.5,1.7,4.1,1.7c1.6,0,2.9-0.6,4.1-1.7c1.1-1.1,1.7-2.8,1.7-4.9c0-2.1-0.6-3.8-1.7-4.9C126,40.7,124.7,40.1,123.1,40.1z
	 M149,35.1c2.2,0,4.2,0.5,5.9,1.4c1.8,0.9,3.1,2.3,4.1,4c1,1.7,1.5,3.8,1.5,6.1c0,2.4-0.5,4.4-1.5,6.1c-1,1.7-2.4,3.1-4.1,4
	c-1.7,0.9-3.7,1.4-5.9,1.4c-2.2,0-4.2-0.5-5.9-1.4c-1.7-0.9-3.1-2.3-4.1-4c-1-1.7-1.5-3.8-1.5-6.1c0-2.4,0.5-4.4,1.5-6.1
	c1-1.8,2.4-3.1,4.1-4C144.9,35.6,146.8,35.1,149,35.1z M149,40.1c-1.6,0-2.9,0.6-4.1,1.7c-1.1,1.1-1.7,2.7-1.7,4.9
	c0,2.1,0.6,3.8,1.7,4.9c1.1,1.1,2.5,1.7,4.1,1.7c1.6,0,2.9-0.6,4.1-1.7c1.1-1.1,1.7-2.8,1.7-4.9c0-2.1-0.6-3.8-1.7-4.9
	C152,40.7,150.6,40.1,149,40.1z"/>
<path class="st1" d="M180.6,43.1c1.7,0.4,3.1,1.2,4.1,2.5c1.1,1.3,1.6,2.8,1.6,4.5c0,2.4-0.8,4.3-2.4,5.7c-1.6,1.4-3.9,2.1-7,2.1
	h-12.3V29.3h12.1c2.9,0,5.1,0.6,6.7,1.9c1.6,1.3,2.4,3.1,2.4,5.4c0,1.8-0.5,3.2-1.4,4.4C183.3,42,182.1,42.8,180.6,43.1z
	 M170.3,41.3h5.2c1.4,0,2.5-0.3,3.2-0.9c0.8-0.6,1.1-1.6,1.1-2.8c0-1.2-0.4-2.1-1.1-2.8c-0.7-0.6-1.9-1-3.4-1h-5.1V41.3z
	 M175.7,53.2c1.5,0,2.7-0.3,3.5-1c0.8-0.7,1.2-1.7,1.2-2.9c0-1.3-0.4-2.2-1.3-2.9c-0.8-0.7-2-1.1-3.5-1.1h-5.4v7.9H175.7z
	 M199.1,35.1c1.9,0,3.5,0.4,4.9,1.3c1.4,0.9,2.3,2.1,2.9,3.6v-4.7h5.7v22.5h-5.7v-4.7c-0.6,1.5-1.5,2.7-2.9,3.7
	c-1.4,0.9-3,1.3-4.9,1.3c-1.9,0-3.6-0.5-5.1-1.4s-2.7-2.2-3.6-4c-0.8-1.8-1.3-3.8-1.3-6.2c0-2.4,0.4-4.4,1.3-6.1
	c0.9-1.8,2.1-3.1,3.6-4C195.5,35.6,197.2,35.1,199.1,35.1z M200.9,40.1c-1.8,0-3.2,0.6-4.3,1.7s-1.6,2.8-1.6,4.8
	c0,2,0.5,3.6,1.6,4.8c1.1,1.1,2.5,1.7,4.3,1.7c1.7,0,3.2-0.6,4.3-1.7c1.1-1.2,1.7-2.8,1.7-4.7c0-2-0.6-3.6-1.7-4.7
	C204,40.7,202.6,40.1,200.9,40.1z M231.1,35.1c2.6,0,4.7,0.9,6.2,2.6c1.5,1.7,2.3,4.1,2.3,7.2v13.1H234V45.5c0-1.8-0.5-3.2-1.4-4.1
	c-0.9-1-2.2-1.5-3.8-1.5c-1.6,0-2.9,0.5-3.9,1.6c-1,1.1-1.5,2.6-1.5,4.5v11.9h-5.7V35.4h5.7v4.5c0.6-1.5,1.6-2.7,2.9-3.5
	C227.7,35.5,229.3,35.1,231.1,35.1z M257.8,57.9l-7.4-9.8v9.8h-5.7v-30h5.7v16.9l7.4-9.3h6.8l-9.5,11.2l9.7,11.3H257.8z"/>
<path class="st0" d="M36.1,0C28.9,0,22,2.1,16,6.1S5.5,15.7,2.7,22.3C0,28.9-0.7,36.1,0.7,43.1c1.4,7,4.8,13.4,9.9,18.5
	c5,5,11.5,8.5,18.5,9.9c7,1.4,14.2,0.7,20.8-2.1c6.6-2.7,12.2-7.4,16.2-13.3c4-5.9,6.1-12.9,6.1-20h-18c0,3.6-1.1,7.1-3,10
	c-2,3-4.8,5.3-8.1,6.6c-3.3,1.4-6.9,1.7-10.4,1c-3.5-0.7-6.7-2.4-9.2-4.9c-2.5-2.5-4.2-5.7-4.9-9.2c-0.7-3.5-0.3-7.1,1-10.4
	c1.4-3.3,3.7-6.1,6.6-8.1c3-2,6.5-3,10-3V0z"/>
<path class="st1" d="M36.1,0c-4.7,0-9.4,0.9-13.8,2.7c-4.4,1.8-8.4,4.5-11.7,7.8c-3.3,3.3-6,7.3-7.8,11.7C0.9,26.6,0,31.3,0,36.1h18
	c0-2.4,0.5-4.7,1.4-6.9c0.9-2.2,2.2-4.2,3.9-5.9c1.7-1.7,3.7-3,5.9-3.9c2.2-0.9,4.5-1.4,6.9-1.4V0z"/>
<circle class="st1" cx="36.1" cy="36.1" r="11.3"/>
<path class="st2" d="M46.9,36.4c0-1.5-0.3-2.9-0.8-4.3c-0.6-1.4-1.4-2.6-2.4-3.6c-1-1-2.3-1.9-3.6-2.4c-1.4-0.6-2.8-0.8-4.3-0.8
	s-2.9,0.3-4.3,0.8c-1.4,0.6-2.6,1.4-3.6,2.4c-1,1-1.9,2.3-2.4,3.6c-0.6,1.4-0.8,2.8-0.8,4.3h11.2H46.9z"/>
<g>
	<path class="st3" d="M109.8,23.9v26.7h-6.5v-11H93.2v11h-6.5V23.9h6.5v10.4h10.1V23.9H109.8z"/>
	<path class="st3" d="M135.3,41.5h-14.7c0.1,1.3,0.5,2.3,1.3,3c0.7,0.7,1.7,1,2.8,1c1.6,0,2.7-0.7,3.4-2.1h6.9
		c-0.4,1.4-1,2.6-1.9,3.8c-0.9,1.1-2.1,2-3.5,2.6c-1.4,0.6-3,1-4.7,1c-2.1,0-3.9-0.4-5.5-1.3c-1.6-0.9-2.9-2.2-3.8-3.8
		c-0.9-1.6-1.4-3.6-1.4-5.8s0.4-4.1,1.3-5.8c0.9-1.6,2.2-2.9,3.8-3.8c1.6-0.9,3.5-1.3,5.6-1.3c2.1,0,3.9,0.4,5.5,1.3
		s2.8,2.1,3.7,3.7c0.9,1.6,1.3,3.5,1.3,5.6C135.4,40.2,135.3,40.8,135.3,41.5z M128.7,37.9c0-1.1-0.4-2-1.1-2.7
		c-0.8-0.7-1.7-1-2.8-1c-1.1,0-2,0.3-2.8,0.9c-0.7,0.6-1.2,1.5-1.4,2.7H128.7z"/>
	<path class="st3" d="M146.2,22.4v28.1h-6.5V22.4H146.2z"/>
	<path class="st3" d="M158.3,22.4v28.1h-6.5V22.4H158.3z"/>
	<path class="st3" d="M168,49.5c-1.7-0.9-3-2.2-3.9-3.8c-1-1.6-1.4-3.6-1.4-5.8c0-2.2,0.5-4.1,1.4-5.8s2.3-2.9,4-3.8
		c1.7-0.9,3.5-1.3,5.6-1.3s4,0.4,5.6,1.3c1.7,0.9,3,2.2,4,3.8c1,1.7,1.4,3.6,1.4,5.8c0,2.2-0.5,4.1-1.5,5.8c-1,1.7-2.3,2.9-4,3.8
		c-1.7,0.9-3.6,1.3-5.6,1.3S169.7,50.4,168,49.5z M176.8,43.9c0.9-0.9,1.3-2.2,1.3-3.9c0-1.7-0.4-3-1.3-3.9s-1.9-1.4-3.1-1.4
		c-1.3,0-2.3,0.4-3.2,1.3c-0.8,0.9-1.3,2.2-1.3,3.9c0,1.7,0.4,3,1.2,3.9s1.9,1.4,3.1,1.4S175.9,44.8,176.8,43.9z"/>
	<path class="st3" d="M219.5,29.3l-5.7,21.2h-7.2l-3.3-13.8l-3.5,13.8h-7.1l-5.8-21.2h6.5l3,15.2l3.6-15.2h6.9l3.6,15.1l3-15.1
		H219.5z"/>
	<path class="st3" d="M223.5,30.1c1.1-2.1,2.7-3.7,4.8-4.8c2-1.2,4.4-1.7,6.9-1.7c3.2,0,5.9,0.8,8.1,2.5c2.3,1.7,3.8,4,4.5,6.8h-7.1
		c-0.5-1.1-1.3-2-2.3-2.5c-1-0.6-2.1-0.9-3.3-0.9c-2,0-3.6,0.7-4.9,2.1c-1.2,1.4-1.9,3.3-1.9,5.6c0,2.3,0.6,4.2,1.9,5.6
		s2.9,2.1,4.9,2.1c1.2,0,2.3-0.3,3.3-0.9c1-0.6,1.7-1.4,2.3-2.5h7.1c-0.8,2.9-2.3,5.2-4.5,6.8s-5,2.5-8.1,2.5
		c-2.6,0-4.9-0.6-6.9-1.7c-2-1.2-3.6-2.8-4.8-4.8c-1.1-2.1-1.7-4.4-1.7-7C221.8,34.5,222.4,32.2,223.5,30.1z"/>
	<path class="st3" d="M271.6,31.5c1.5,1.6,2.2,3.8,2.2,6.6v12.4h-6.5V39c0-1.4-0.4-2.5-1.1-3.3s-1.7-1.2-3-1.2s-2.2,0.4-3,1.2
		c-0.7,0.8-1.1,1.9-1.1,3.3v11.5h-6.5V22.4h6.5v9.8c0.7-0.9,1.6-1.7,2.7-2.2c1.1-0.6,2.4-0.8,3.8-0.8
		C268.2,29.1,270.2,29.9,271.6,31.5z"/>
	<path class="st3" d="M279.2,34.2c0.8-1.6,1.9-2.9,3.4-3.8c1.4-0.9,3-1.3,4.8-1.3c1.5,0,2.8,0.3,3.9,0.9c1.1,0.6,2,1.4,2.6,2.4v-3
		h6.5v21.2h-6.5v-3c-0.6,1-1.5,1.8-2.6,2.4c-1.1,0.6-2.4,0.9-3.9,0.9c-1.7,0-3.3-0.4-4.7-1.3c-1.4-0.9-2.5-2.2-3.4-3.8
		s-1.2-3.6-1.2-5.8C278,37.7,278.4,35.8,279.2,34.2z M292.5,36.1c-0.9-0.9-2-1.4-3.3-1.4s-2.4,0.5-3.3,1.4c-0.9,0.9-1.3,2.2-1.3,3.8
		c0,1.6,0.4,2.9,1.3,3.9c0.9,1,2,1.4,3.3,1.4s2.4-0.5,3.3-1.4c0.9-0.9,1.3-2.2,1.3-3.8C293.9,38.3,293.4,37,292.5,36.1z"/>
	<path class="st3" d="M317.8,45v5.5h-3.3c-2.4,0-4.2-0.6-5.5-1.7c-1.3-1.2-2-3-2-5.6v-8.4h-2.6v-5.4h2.6v-5.2h6.5v5.2h4.3v5.4h-4.3
		v8.5c0,0.6,0.2,1.1,0.5,1.4c0.3,0.3,0.8,0.4,1.5,0.4H317.8z"/>
</g>
<g>
	<defs>
		<path id="SVGID_1_" d="M37.5,0.7C18,0.7,2.1,16.9,2.1,36.8c0,4.9,0.9,9.5,2.7,13.8c0.4,0.9,0.5,2,0.3,2.9c-1,5-3,14.9-3,14.9
			c-0.5,2.7,1.8,5.1,4.5,4.4l13.2-3.1c1.4-0.3,2.9-0.2,4.3,0.4c4.1,1.7,8.7,2.7,13.4,2.7c19.5,0,35.4-16.1,35.4-36S57,0.7,37.5,0.7z
			"/>
	</defs>
	<clipPath id="SVGID_2_">
		<use xlink:href="#SVGID_1_"  style="overflow:visible;"/>
	</clipPath>
	<g class="st4">
		
			<linearGradient id="SVGID_3_" gradientUnits="userSpaceOnUse" x1="120.1566" y1="103.5513" x2="93.5865" y2="75.4417" gradientTransform="matrix(0.8463 0.4409 -0.4276 0.821 -21.1704 -69.0858)">
			<stop  offset="0" style="stop-color:#E52163"/>
			<stop  offset="0.1736" style="stop-color:#D01C5A"/>
			<stop  offset="0.6648" style="stop-color:#711131"/>
		</linearGradient>
		<path class="st5" d="M1.8,51.3L-7,58c-2.4,11.6-4.2,21.5-4.1,24.6c0.6,2.7,0.2,7,14.5,4.2c14.3-2.7,81.4-26.1,81.4-26.1l-4.6-17.6
			l-48.4-4.2L1.8,51.3z"/>
		<g>
			<defs>
				<path id="SVGID_4_" d="M15.4,14.6L-4.2,44.8c-1,4.6-2,9.3-2.9,13.7c9.3-4.6,55.1-24.9,91.9,2.2c0,0,12.8-3.4,13-14.4
					c0.3-11-19.5-27.8-32.5-38.7C52.4-3.2,15.4,14.6,15.4,14.6z"/>
			</defs>
			
				<linearGradient id="SVGID_5_" gradientUnits="userSpaceOnUse" x1="140.6841" y1="74.2834" x2="35.8984" y2="70.5641" gradientTransform="matrix(0.8463 0.4409 -0.4276 0.821 -21.1704 -69.0858)">
				<stop  offset="0" style="stop-color:#E52163"/>
				<stop  offset="0.1736" style="stop-color:#D01C5A"/>
				<stop  offset="0.6648" style="stop-color:#711131"/>
			</linearGradient>
			<use xlink:href="#SVGID_4_"  style="overflow:visible;fill-rule:evenodd;clip-rule:evenodd;fill:url(#SVGID_5_);"/>
			<clipPath id="SVGID_6_">
				<use xlink:href="#SVGID_4_"  style="overflow:visible;"/>
			</clipPath>
			<g class="st6">
				
					<linearGradient id="SVGID_7_" gradientUnits="userSpaceOnUse" x1="159.8557" y1="111.6982" x2="67.0697" y2="108.4049" gradientTransform="matrix(0.8463 0.4409 -0.4276 0.821 -21.1704 -69.0858)">
					<stop  offset="0.3352" style="stop-color:#711131"/>
					<stop  offset="0.8264" style="stop-color:#D01C5A"/>
					<stop  offset="1" style="stop-color:#E52163"/>
				</linearGradient>
				<path class="st7" d="M52.7,113.7l32-52.9c0,0-35.1-33.7-93.6-1.3C-67.3,91.8,52.7,113.7,52.7,113.7z"/>
			</g>
		</g>
		<g>
			<defs>
				<path id="SVGID_8_" d="M-4.2,45c4.1-5.2,32.3-38.6,69.6-37.4c0,0-38.1-32.8-44.8-33.2c-5.2-0.3-7.7-0.5-16.2,33
					C4.1,8.6-0.2,26.7-4.2,45z"/>
			</defs>
			
				<linearGradient id="SVGID_9_" gradientUnits="userSpaceOnUse" x1="83.5525" y1="61.9034" x2="23.4791" y2="57.2591" gradientTransform="matrix(0.8463 0.4409 -0.4276 0.821 -21.1704 -69.0858)">
				<stop  offset="0" style="stop-color:#E52163"/>
				<stop  offset="0.1736" style="stop-color:#D01C5A"/>
				<stop  offset="0.6648" style="stop-color:#711131"/>
			</linearGradient>
			<use xlink:href="#SVGID_8_"  style="overflow:visible;fill-rule:evenodd;clip-rule:evenodd;fill:url(#SVGID_9_);"/>
			<clipPath id="SVGID_10_">
				<use xlink:href="#SVGID_8_"  style="overflow:visible;"/>
			</clipPath>
			<g class="st8">
				
					<linearGradient id="SVGID_11_" gradientUnits="userSpaceOnUse" x1="117.2306" y1="74.9303" x2="71.0578" y2="73.2915" gradientTransform="matrix(0.8463 0.4409 -0.4276 0.821 -21.1704 -69.0858)">
					<stop  offset="0.3352" style="stop-color:#711131"/>
					<stop  offset="0.8264" style="stop-color:#D01C5A"/>
					<stop  offset="1" style="stop-color:#E52163"/>
				</linearGradient>
				<path class="st9" d="M64.4,11.7l0.9-4c0,0-36.1-6.9-70.1,38C-38.8,90.6,64.4,11.7,64.4,11.7z"/>
			</g>
		</g>
	</g>
</g>
<ellipse class="st10" cx="23.1" cy="36.9" rx="5.1" ry="5.1"/>
<ellipse class="st10" cx="37.4" cy="36.9" rx="5.1" ry="5.1"/>
<ellipse class="st10" cx="51.8" cy="36.9" rx="5.1" ry="5.1"/>
</svg>
